<svg xmlns="http://www.w3.org/2000/svg" viewBox="0 0 512 512" width="100%" height="100%">
  <defs>
    <linearGradient id="grad" x1="0%" y1="0%" x2="100%" y2="100%">
      <stop offset="0%" stop-color="#8B5CF6" />
      <stop offset="100%" stop-color="#4F46E5" />
    </linearGradient>
    <filter id="shadow" x="-10%" y="-10%" width="120%" height="120%">
      <feDropShadow dx="0" dy="16" stdDeviation="16" flood-color="#4F46E5" flood-opacity="0.25"/>
    </filter>
  </defs>
  <!-- Background Circle with Gradient and Shadow -->
  <circle cx="256" cy="256" r="220" fill="url(#grad)" filter="url(#shadow)" />
  <!-- Minimalist Monogram 'B' (Centered mathematically on both axes) -->
  <g transform="translate(-34, -10)">
    <path d="M190 140h110c45 0 80 25 80 65 0 30-20 50-45 55 35 5 55 30 55 65 0 45-40 67-90 67H190V140zm55 50v60h50c18 0 30-8 30-30s-12-30-30-30h-50zm0 110v60h55c20 0 35-10 35-30s-15-30-35-30h-55z" fill="#ffffff" />
  </g>
</svg>